#!OML:ASF H:\Male1\Project 1\Capture day 1\Session 1\Male1.ASF
:FULLY-SPECIFIED
:DEGREES
644
root 45.2419 15.4417 0.832075 -1084.03 62.9529 1077.27
lowerback 8.49595 1.97658 4.52114
upperback 5.11374 3.0571 0.356086
thorax 0.762541 1.67841 -2.3927
lowerneck -4.00173 8.53173 14.5158
upperneck 13.2423 12.5455 -14.4325
head 6.49562 6.05469 -6.0116
rclavicle 5.81445e-014 3.97569e-016
rhumerus -33.4562 -4.80777 -84.4157
rradius 36.1181
rwrist -25.9245
rhand -22.1778 -2.61801
rfingers 7.12502
rthumb 4.23712 -32.5556
lclavicle 5.81445e-014 3.97569e-016
lhumerus -35.4024 -5.88889 89.0361
lradius 36.0982
lwrist 5.14277
lhand -17.441 15.5347
lfingers 7.12502
lthumb 8.80975 45.3309
rfemur -3.96266 11.8995 27.7214
rtibia 23.7238
rfoot -31.0737 -29.5503
rtoes -12.4858
lfemur -17.918 -11.5473 -18.8377
ltibia 36.7338
lfoot -20.7107 8.85045
ltoes -18.3146
645
root 45.263 15.4437 0.845627 -1085.43 64.698 1076.16
lowerback 7.75025 1.69178 4.98594
upperback 5.33134 2.66893 0.389994
thorax 1.39357 1.5163 -2.55407
lowerneck -3.59118 8.59733 15.0849
upperneck 13.2245 12.7379 -14.9636
head 6.52103 6.16767 -6.27689
rclavicle -1.46604e-014 -1.13307e-014
rhumerus -33.5126 -4.72741 -84.6198
rradius 35.8947
rwrist -25.2614
rhand -21.2942 -1.24317
rfingers 7.12502
rthumb 5.09031 -31.162
lclavicle -1.46604e-014 -1.13307e-014
lhumerus -35.5872 -5.6508 88.6841
lradius 35.3612
lwrist 4.2997
lhand -17.3854 15.4947
lfingers 7.12502
lthumb 8.86347 45.2886
rfemur -2.77311 10.9959 28.2344
rtibia 22.7645
rfoot -32.245 -29.6976
rtoes -10.7139
lfemur -17.0463 -11.2651 -18.5506
ltibia 37.3376
lfoot -21.4954 10.0735
ltoes -17.5139
646
root 45.278 15.4385 0.838561 -1085.24 66.3352 1076.61
lowerback 6.95891 1.58271 4.92991
upperback 5.56058 2.47516 0.24495
thorax 2.05825 1.4423 -2.62575
lowerneck -3.64818 8.53852 15.0709
upperneck 13.2939 12.6783 -15.041
head 6.54693 6.13325 -6.30591
rclavicle -1.22253e-014 1.43125e-014
rhumerus -33.4679 -4.62601 -84.7667
rradius 35.8196
rwrist -25.2479
rhand -20.9848 -0.356658
rfingers 7.12502
rthumb 5.38906 -30.2681
lclavicle -1.22253e-014 1.43125e-014
lhumerus -35.5451 -5.45347 88.4644
lradius 34.6013
lwrist 3.38106
lhand -17.3139 15.4196
lfingers 7.12502
lthumb 8.93248 45.2105
rfemur -1.9492 9.96388 27.8596
rtibia 21.9578
rfoot -32.8006 -29.8773
rtoes -9.89408
lfemur -16.2683 -10.9794 -18.9854
ltibia 37.8564
lfoot -21.9175 11.2954
ltoes -17.0259
647
root 45.2171 15.4302 0.815873 -1086.54 67.3779 1075.21
lowerback 7.3694 1.7729 5.36055
upperback 5.4011 2.77946 0.450149
thorax 1.70344 1.5924 -2.68844
lowerneck -3.95496 8.25522 14.3251
upperneck 13.4378 12.2732 -14.6667
head 6.50691 5.91086 -6.09434
rclavicle -6.65929e-015 1.27222e-014
rhumerus -33.9281 -4.75889 -84.5658
rradius 36.5905
rwrist -25.5789
rhand -21.0795 -0.156372
rfingers 7.12502
rthumb 5.29762 -30.0702
lclavicle -6.65929e-015 1.27222e-014
lhumerus -35.5022 -5.41736 88.5835
lradius 33.8407
lwrist 2.63145
lhand -17.1384 15.4255
lfingers 7.12502
lthumb 9.1018 45.2091
rfemur -1.90691 10.9051 28.6034
rtibia 21.5126
rfoot -34.5381 -30.6742
rtoes -5.66947
lfemur -16.0884 -10.1811 -18.1823
ltibia 38.1898
lfoot -21.8251 12.0655
ltoes -16.3115
648
root 45.1658 15.4302 0.793293 -1088 68.4503 1073.6
lowerback 7.58285 1.85889 5.78251
upperback 5.24194 2.93632 0.60463
thorax 1.44947 1.66977 -2.78557
lowerneck -4.13357 8.03463 13.7984
upperneck 13.4656 11.9502 -14.3634
head 6.44396 5.74017 -5.93665
rclavicle -1.30204e-014 -8.34896e-015
rhumerus -34.1361 -4.55798 -84.5894
rradius 36.8472
rwrist -26.03
rhand -21.2085 0.226308
rfingers 7.12502
rthumb 5.17301 -29.6906
lclavicle -1.30204e-014 -8.34896e-015
lhumerus -35.4762 -5.14349 88.4651
lradius 33.1263
lwrist 2.1786
lhand -17.0322 15.3876
lfingers 7.12502
lthumb 9.20428 45.1667
rfemur -2.01589 11.6881 29.2963
rtibia 21.2512
rfoot -36.1877 -31.4826
rtoes -2.37448
lfemur -15.9557 -9.40328 -17.3082
ltibia 38.5356
lfoot -22.0081 12.8505
ltoes -17.0265
649
root 45.1502 15.4291 0.773968 -1088.93 69.7631 1072.88
lowerback 7.44845 1.78942 5.79952
upperback 5.2755 2.83807 0.621151
thorax 1.54969 1.62564 -2.76605
lowerneck -4.08838 7.89183 13.6955
upperneck 13.4412 11.7514 -14.2652
head 6.38536 5.64832 -5.91087
rclavicle -3.26007e-014 5.76476e-015
rhumerus -34.393 -4.59383 -84.6009
rradius 37.0751
rwrist -25.4703
rhand -20.7688 -0.345417
rfingers 7.12502
rthumb 5.59761 -30.2515
lclavicle -3.26007e-014 5.76476e-015
lhumerus -35.6179 -4.39382 88.0896
lradius 32.5572
lwrist 1.43978
lhand -17.4075 15.1445
lfingers 7.12502
lthumb 8.84213 44.9392
rfemur -1.60988 11.7125 29.4828
rtibia 20.9249
rfoot -37.1394 -32.2934
rtoes -1.53014
lfemur -15.2867 -8.72388 -17.0289
ltibia 38.9463
lfoot -22.6202 13.7152
ltoes -17.3839
650
root 45.1256 15.4195 0.748755 -1090.65 70.8728 1071.5
lowerback 7.6269 1.78345 6.03339
upperback 5.28889 2.86112 0.693962
thorax 1.47679 1.64296 -2.82944
lowerneck -4.07117 7.70212 13.5377
upperneck 13.428 11.4938 -14.1788
head 6.32412 5.52402 -5.88512
rclavicle -3.30976e-014 -7.95139e-016
rhumerus -34.797 -5.3929 -84.2124
rradius 37.3437
rwrist -23.2778
rhand -19.207 -1.88754
rfingers 7.12502
rthumb 7.10532 -31.7483
lclavicle -3.30976e-014 -7.95139e-016
lhumerus -35.8742 -3.5385 87.6766
lradius 32.2534
lwrist 0.602475
lhand -17.6617 15.1816
lfingers 7.12502
lthumb 8.59685 44.9866
rfemur -1.08389 11.8832 29.946
rtibia 20.566
rfoot -37.7021 -33.4494
rtoes -1.98479
lfemur -14.4333 -7.89166 -16.4962
ltibia 39.3503
lfoot -23.4231 14.2607
ltoes -15.0054
651
root 45.0962 15.4107 0.720524 -1093.1 71.8542 1069.27
lowerback 7.79969 1.71959 6.38181
upperback 5.28331 2.8156 0.82448
thorax 1.38433 1.62685 -2.89353
lowerneck -4.0626 7.60287 13.3476
upperneck 13.3733 11.3481 -14.0387
head 6.26405 5.45393 -5.82295
rclavicle 1.46107e-014 8.74653e-015
rhumerus -35.0791 -5.33024 -84.3926
rradius 37.331
rwrist -23.6473
rhand -19.5282 -1.11901
rfingers 7.12502
rthumb 6.79526 -30.99
lclavicle 1.46107e-014 8.74653e-015
lhumerus -36.0574 -2.82799 87.254
lradius 32.0273
lwrist 0.282393
lhand -17.68 15.3748
lfingers 7.12502
lthumb 8.57912 45.1805
rfemur -0.696109 12.2327 30.6499
rtibia 20.2292
rfoot -38.0044 -34.9938
rtoes -3.23113
lfemur -13.673 -7.06233 -15.6607
ltibia 39.7162
lfoot -24.0917 14.8292
ltoes -13.4513
652
root 45.0693 15.4025 0.688085 -1095.61 72.7264 1066.92
lowerback 7.88578 1.58911 6.51969
upperback 5.27411 2.66292 1.01875
thorax 1.30976 1.55055 -2.76477
lowerneck -4.03528 7.59519 13.1176
upperneck 13.2553 11.3227 -13.8787
head 6.19589 5.44164 -5.73507
rclavicle 4.87022e-015 7.95139e-015
rhumerus -35.2058 -4.98902 -84.5603
rradius 37.2101
rwrist -23.6685
rhand -19.6063 -0.99443
rfingers 7.12502
rthumb 6.71989 -30.8678
lclavicle 4.87022e-015 7.95139e-015
lhumerus -36.2186 -2.02104 86.8787
lradius 31.7562
lwrist 0.0939381
lhand -17.5323 15.3531
lfingers 7.12502
lthumb 8.72172 45.1529
rfemur -0.294434 12.6126 31.3104
rtibia 19.8513
rfoot -38.7555 -35.9461
rtoes -2.3983
lfemur -12.9933 -6.24631 -14.8439
ltibia 40.1362
lfoot -24.5312 15.4775
ltoes -12.3022
653
root 45.069 15.3949 0.651907 -1098.06 73.7022 1064.61
lowerback 7.57009 1.49795 6.81209
upperback 5.33043 2.53508 1.07774
thorax 1.54352 1.50337 -2.84512
lowerneck -4.24681 7.46691 12.8536
upperneck 13.2711 11.0795 -13.4788
head 6.16497 5.32349 -5.57718
rclavicle -1.83379e-014 -9.74045e-015
rhumerus -35.4412 -5.00152 -84.6964
rradius 37.199
rwrist -23.5608
rhand -19.6097 -1.063
rfingers 7.12502
rthumb 6.71659 -30.9365
lclavicle -1.83379e-014 -9.74045e-015
lhumerus -36.357 -1.54435 86.5184
lradius 31.5463
lwrist -0.210324
lhand -17.2014 15.3132
lfingers 7.12502
lthumb 9.04097 45.0994
rfemur 0.305511 12.1481 31.7002
rtibia 19.3979
rfoot -39.7076 -35.7268
rtoes -0.103089
lfemur -12.1788 -5.55259 -14.2247
ltibia 40.4835
lfoot -25.4054 15.4723
ltoes -7.44534
